# xmcd
#
# Track frame offsets: 
#        150
#        12867
#        25572
#        38261
#        48831
#        63471
#        78724
#        92695
#        104258
#        117142
#        127751
#        140001
#        152663
#        165054
#        179255
#        193303
#        205802
#        217655
#        232975
#        246950
#        258115
#        273027
#        285582
#
# Disc length: 3979 seconds
#
# Revision: 0
# Processed by: cddbd v1.5.2PL0 Copyright (c) Steve Scherf et al.
# Submitted via: ExactAudioCopy v0.99pb4
#
DISCID=1e0f8917
DTITLE=Elmore James - Dust My Blues
DYEAR=2007
DGENRE=Blues
TTITLE0=Dust My Broom (I Believe My Time Ain't Long)
TTITLE1=Baby What's Wrong
TTITLE2=Hand In Hand
TTITLE3=Hawaiian Boogie
TTITLE4=I Believe
TTITLE5=I Held My Baby Last Night
TTITLE6=Please Find My Baby (Lost Woman Blues)
TTITLE7=Rock My Baby Right
TTITLE8=Sinful Woman
TTITLE9=Can't Stop Lovin"
TTITLE10=Country Boogie (Tool Bag Boogie)
TTITLE11=Dark and Dreary
TTITLE12=Early In The Morning
TTITLE13=Dumb Woman Blues
TTITLE14=I See My Baby
TTITLE15=Make A Little Love
TTITLE16=Make My Dreams Come True
TTITLE17=My Best Friend
TTITLE18=She Just Won't Do Right
TTITLE19=Strange Kinda Feeling
TTITLE20=Whose Muddy Shoes
TTITLE21=Round House Boogie aka Sax Symphonic Boogie
TTITLE22=I May Be Wrong aka Boogie-Woogie (I May Be Wrong)
EXTD=
EXTT0=
EXTT1=
EXTT2=
EXTT3=
EXTT4=
EXTT5=
EXTT6=
EXTT7=
EXTT8=
EXTT9=
EXTT10=
EXTT11=
EXTT12=
EXTT13=
EXTT14=
EXTT15=
EXTT16=
EXTT17=
EXTT18=
EXTT19=
EXTT20=
EXTT21=
EXTT22=
PLAYORDER=
